<?xml version="1.0" encoding="utf-8"?>
<!-- Generator: Adobe Illustrator 22.0.0, SVG Export Plug-In . SVG Version: 6.00 Build 0)  -->
<svg version="1.1" id="Layer_1" xmlns="http://www.w3.org/2000/svg" xmlns:xlink="http://www.w3.org/1999/xlink" x="0px" y="0px"
	 viewBox="0 0 182.1 38.5" style="enable-background:new 0 0 182.1 38.5;" xml:space="preserve">
<style type="text/css">
	.st0{fill:none;}
	.st1{fill:#FFFFFF;}
	.st2{fill:#0C66FF;}
	.st3{fill:#F69220;}
	.st4{fill:#3B506C;}
	.st5{display:none;fill:#F69220;}
	.st6{display:none;}
	.st7{display:inline;fill:#F69220;}
	.st8{enable-background:new    ;}
	.st9{display:none;fill:#F69220;enable-background:new    ;}
	.st10{font-family:'RobotoSlab-Black';}
	.st11{font-size:10.8387px;}
	.st12{display:none;fill:#3B506C;}
	.st13{display:none;fill:#0C66FF;}
</style>
<g>
	<rect x="20.1" y="15.6" class="st0" width="2" height="1.5"/>
	<rect x="17.7" y="13.6" class="st0" width="1.8" height="1.7"/>
	<rect x="17.7" y="15.6" class="st0" width="1.8" height="1.5"/>
	<rect x="20.1" y="13.6" class="st0" width="2" height="1.7"/>
	<rect x="5.2" y="29.7" class="st1" width="2" height="3.8"/>
	<rect x="7.5" y="27.8" class="st1" width="2" height="5.6"/>
	<rect x="10.1" y="25.8" class="st1" width="1.8" height="7.6"/>
	<g>
		<path class="st2" d="M18,11.6c0.5,0.2,0.7-0.6,0.1-0.6c-0.2,0-0.4,0.3-0.3,0.5L18,11.6z"/>
		<path class="st2" d="M15.8,10.7c-0.2,0-0.3,0.1-0.3,0.3s0.1,0.3,0.3,0.3s0.3-0.1,0.3-0.3S16,10.7,15.8,10.7z"/>
		<path class="st2" d="M14.3,2.3L14.3,2.3l0.4-0.4l0,0L15,1.6l12.2,11.9C29.8,7.8,26.5,0,17.4,0C12.8,0,8.3,0,3.6,0v12.8L14.3,2.3
			L14.3,2.3z"/>
		<path class="st3" d="M30,16.6L27.3,14l0,0l0,0l0,0L15.1,2.1l-0.3,0.3l0,0l-0.4,0.4l0,0l0,0L3.7,13.4L0,17l0.6-0.5L0,17.1l3.6-3.3
			v5.7v0.2V20v16.6h0.6v-4.4h2v4.4h0.4v-6.4h2v6.4h0.6v-8.7H11v8.7h0.6V20v-0.3h2.5h0.5c0-0.8,0-1.2,0-1.4l-1-0.9h-1.7l-1.3-1.2
			c-1.1,0.5-1.5-1.3-0.3-1.3c0.6,0,0.9,0.6,0.6,1l1.2,1h1.1H13v-0.8l-1.1-0.8v-2.1C11,13,11.2,11.9,12,11.9s1,1.1,0.2,1.3v1.9
			l0.8,0.5v-1.1c-0.3-0.1-0.5-0.3-0.5-0.7c0-0.8,1.4-0.9,1.5,0c0,0.3-0.3,0.6-0.5,0.7v2.2l1.7,1.5c0,0.2,0,0.8,0,1.5h0.5
			c0-0.9,0-2.2,0-2.5l-1.2-1v-3.4c-0.3-0.1-0.6-0.3-0.6-0.7c0-0.9,1.4-0.9,1.5,0c0,0.3-0.2,0.6-0.4,0.7v1.4l0.9-0.7v-1.9
			c-0.4-0.1-0.6-0.3-0.6-0.7s0.3-0.7,0.7-0.7c0.8,0,1,1,0.3,1.3v2.1l-1.3,1V16l0.7,0.6v-0.3l1-0.9v-2.8l1-1.1
			c-0.3-0.4,0-1.1,0.6-1.1c1.1,0,0.8,1.7-0.3,1.3l-1,1v2.8l-1,0.9c0,0.4,0,1.8,0,3.1h0.4c0-0.8,0-1.2,0-1.4l1-0.7v-1.8l1.3-0.9V14
			c-0.9,0.1-0.7-1,0.1-1s0.9,1.1,0.2,1.3v0.9l-1.3,0.9v1.3l2.5-1.8v-2c-0.8-0.2-0.6-1.3,0.2-1.3c0.8,0,1,1.1,0.2,1.3v2.2l-3.3,2.3
			h0.6l1.8-0.9c-0.2-1,1.4-1.1,1.4-0.1c0,0.6-0.8,0.9-1.2,0.5L18,18.5h-1.2h-0.1c0,0.3,0,0.8,0,1.2h0.7c5.1,0,8.3-2.4,9.8-5.5
			L30,16.6l-0.6-0.5L30,16.6z M14.8,7.4h-1.4V6.1h1.4V7.4z M14.8,5.7h-1.4V4.6h1.4V5.7z M16.5,7.4h-1.2V6.1h1.2V7.4z M16.5,5.7h-1.2
			V4.6h1.2V5.7z"/>
		<path class="st2" d="M18.8,13.4c-0.5,0-0.5,0.6,0,0.6S19.2,13.4,18.8,13.4z"/>
		<path class="st2" d="M20.4,12.7c-0.4,0-0.4,0.6,0,0.6S20.8,12.7,20.4,12.7z"/>
		<path class="st2" d="M20.8,17.1c0-0.2-0.1-0.3-0.3-0.3c-0.2,0-0.3,0.1-0.3,0.3c0,0.2,0.1,0.3,0.3,0.3
			C20.6,17.4,20.8,17.3,20.8,17.1z"/>
		<path class="st2" d="M10.3,16c0.2,0.2,0.6,0.1,0.6-0.2c0-0.2-0.1-0.3-0.3-0.3C10.2,15.5,10.1,15.8,10.3,16z"/>
		<path class="st2" d="M12.2,12.4c-0.1-0.1-0.3-0.1-0.4,0c-0.2,0.2-0.2,0.5,0.2,0.5C12.4,12.8,12.4,12.5,12.2,12.4z"/>
		<path class="st2" d="M14.5,12c-0.4,0-0.4,0.4-0.1,0.6h0.2C15,12.4,14.9,12,14.5,12z"/>
		<path class="st2" d="M12.8,13.9c0,0.4,0.6,0.4,0.6,0C13.5,13.5,12.8,13.5,12.8,13.9z"/>
	</g>
	<g>
		<g>
			<path class="st4" d="M45.2,9c0.5,0,0.9,0.2,1.3,0.6c0.4,0.4,0.6,0.9,0.6,1.4v4.5c0,0.5-0.2,1-0.6,1.4c-0.4,0.4-0.8,0.6-1.3,0.6
				h-6.3v5.8h-2.5V9H45.2z M43.9,14.9c0.2,0,0.3-0.1,0.5-0.2c0.1-0.1,0.2-0.2,0.2-0.4v-2.1c0-0.2-0.1-0.3-0.2-0.4
				c-0.1-0.1-0.3-0.2-0.5-0.2h-5v3.2h5V14.9z"/>
			<path class="st4" d="M47.8,23.3L52.3,9H55l4.5,14.2h-2.7L56,20.6h-4.7l-0.8,2.6L47.8,23.3L47.8,23.3z M55.2,18.1l-1.5-4.9
				l-1.6,4.9H55.2z"/>
			<path class="st4" d="M69.9,9c0.5,0,0.9,0.2,1.3,0.6c0.4,0.4,0.6,0.9,0.6,1.4v4.5c0,0.5-0.2,1-0.6,1.4s-0.8,0.6-1.3,0.6h-0.2
				l2.6,5.8h-2.9l-2.6-5.8h-3.2v5.8h-2.5V9H69.9z M68.6,14.9c0.2,0,0.3-0.1,0.5-0.2c0.1-0.1,0.2-0.2,0.2-0.4v-2.1
				c0-0.2-0.1-0.3-0.2-0.4c-0.1-0.1-0.3-0.2-0.5-0.2h-5v3.2h5V14.9z"/>
			<path class="st4" d="M76.3,9l3.2,10.1L82.6,9h2.7l-4.5,14.2h-2.7L73.6,9H76.3z"/>
			<path class="st4" d="M83.9,23.3L88.4,9h2.7l4.5,14.3h-2.7l-0.8-2.6h-4.7l-0.8,2.6H83.9z M91.3,18.1l-1.5-4.9l-1.6,4.9H91.3z"/>
			<path class="st4" d="M94.1,9h10.8v2.6h-4.1v11.6h-2.5V11.6h-4.1V9H94.1z"/>
			<path class="st4" d="M109.1,9v14.2h-2.5V9H109.1z"/>
			<path class="st4" d="M124,9.1c0.5,0,0.9,0.2,1.3,0.6c0.4,0.4,0.6,0.9,0.6,1.4v2.2h-2.5v-1c0-0.2-0.1-0.3-0.2-0.4
				c-0.1-0.1-0.3-0.2-0.5-0.2h-4.4c-0.2,0-0.3,0.1-0.5,0.2c-0.1,0.1-0.2,0.2-0.2,0.4v2.1c0,0.2,0.1,0.3,0.2,0.4s0.3,0.2,0.5,0.2h9.6
				v2.6h-2.1v3.9c0,0.5-0.2,1-0.6,1.4s-0.8,0.6-1.3,0.6H117c-0.5,0-0.9-0.2-1.3-0.6s-0.6-0.9-0.6-1.4v-3.6c0-0.5,0.2-1,0.7-1.5
				c-0.4-0.5-0.7-1-0.7-1.5V11c0-0.5,0.2-1,0.6-1.4S116.5,9,117,9h7V9.1z M123.4,17.4h-5c-0.2,0-0.3,0.1-0.5,0.2
				c-0.1,0.1-0.2,0.2-0.2,0.4v2.1c0,0.2,0.1,0.3,0.2,0.4s0.3,0.2,0.5,0.2h4.4c0.2,0,0.3-0.1,0.5-0.2c0.1-0.1,0.2-0.2,0.2-0.4
				L123.4,17.4L123.4,17.4z"/>
			<path class="st4" d="M133.9,11c0-0.5,0.2-1,0.7-1.4C135,9.2,135.5,9,136,9h6.8c0.5,0,0.9,0.2,1.3,0.6c0.4,0.4,0.6,0.9,0.6,1.4
				v2.2h-2.5v-1c0-0.2-0.1-0.3-0.2-0.4c-0.1-0.1-0.3-0.2-0.5-0.2h-4.3c-0.2,0-0.3,0.1-0.5,0.2c-0.1,0.1-0.2,0.2-0.2,0.4v2.1
				c0,0.2,0.1,0.3,0.2,0.4c0.1,0.1,0.3,0.2,0.5,0.2h5.5c0.5,0,1,0.2,1.4,0.6c0.5,0.4,0.7,0.9,0.7,1.4v4.5c0,0.5-0.2,1-0.7,1.4
				c-0.4,0.4-0.9,0.6-1.4,0.6h-6.8c-0.5,0-0.9-0.2-1.3-0.6c-0.4-0.4-0.6-0.9-0.6-1.4v-2.2h2.6v1c0,0.2,0.1,0.3,0.2,0.4
				c0.1,0.1,0.3,0.2,0.5,0.2h4.3c0.2,0,0.3-0.1,0.5-0.2c0.1-0.1,0.2-0.2,0.2-0.4V18c0-0.2-0.1-0.3-0.2-0.4c-0.1-0.1-0.3-0.2-0.5-0.2
				h-5.5c-0.5,0-1-0.2-1.4-0.6c-0.5-0.4-0.7-0.9-0.7-1.4V11H133.9z"/>
			<path class="st4" d="M146.2,11c0-0.5,0.2-1,0.7-1.4c0.4-0.4,0.9-0.6,1.4-0.6h6.8c0.5,0,0.9,0.2,1.3,0.6c0.4,0.4,0.6,0.9,0.6,1.4
				v10.3c0,0.5-0.2,1-0.6,1.4c-0.4,0.4-0.8,0.6-1.3,0.6h-6.8c-0.5,0-1-0.2-1.4-0.6c-0.5-0.4-0.7-0.9-0.7-1.4V11z M154.4,12.2
				c0-0.2-0.1-0.3-0.2-0.4c-0.1-0.1-0.3-0.2-0.5-0.2h-4.3c-0.2,0-0.3,0.1-0.5,0.2c-0.1,0.1-0.2,0.2-0.2,0.4v7.9
				c0,0.2,0.1,0.3,0.2,0.4c0.1,0.1,0.3,0.2,0.5,0.2h4.3c0.2,0,0.3-0.1,0.5-0.2c0.1-0.1,0.2-0.2,0.2-0.4V12.2z"/>
			<path class="st4" d="M161,23.3h-2.5V9h2.9l5.3,9.6V9h2.5v14.2h-2.9l-5.3-9.6V23.3z"/>
			<path class="st4" d="M170.8,11c0-0.5,0.2-1,0.7-1.4c0.4-0.4,0.9-0.6,1.4-0.6h6.8c0.5,0,0.9,0.2,1.3,0.6c0.4,0.4,0.6,0.9,0.6,1.4
				v2.2h-2.5v-1c0-0.2-0.1-0.3-0.2-0.4c-0.1-0.1-0.3-0.2-0.5-0.2h-4.3c-0.2,0-0.3,0.1-0.5,0.2c-0.1,0.1-0.2,0.2-0.2,0.4v2.1
				c0,0.2,0.1,0.3,0.2,0.4c0.1,0.1,0.3,0.2,0.5,0.2h5.5c0.5,0,1,0.2,1.4,0.6c0.5,0.4,0.7,0.9,0.7,1.4v4.5c0,0.5-0.2,1-0.7,1.4
				c-0.4,0.4-0.9,0.6-1.4,0.6h-6.8c-0.5,0-0.9-0.2-1.3-0.6c-0.4-0.4-0.6-0.9-0.6-1.4v-2.2h2.6v1c0,0.2,0.1,0.3,0.2,0.4
				c0.1,0.1,0.3,0.2,0.5,0.2h4.3c0.2,0,0.3-0.1,0.5-0.2c0.1-0.1,0.2-0.2,0.2-0.4V18c0-0.2-0.1-0.3-0.2-0.4c-0.1-0.1-0.3-0.2-0.5-0.2
				H173c-0.5,0-1-0.2-1.4-0.6c-0.5-0.4-0.7-0.9-0.7-1.4V11H170.8z"/>
		</g>
		<rect x="36.7" y="32.7" class="st5" width="142.9" height="1.4"/>
		<g class="st6">
			<path class="st7" d="M30.9,25.4c0,0.8-0.5,1.6-1.8,1.6c-0.4,0-1,0-1.4,0v-3.1c0.4,0,1,0,1.4,0C30.4,23.9,30.9,24.7,30.9,25.4z
				 M28.4,26.5h0.7c0.8,0,1.1-0.5,1.1-1s-0.3-1-1.1-1h-0.7V26.5z"/>
			<path class="st7" d="M34.1,27h-2.7c0-1,0-2.1,0-3.1h2.7v0.6h-2v0.7h2v0.5h-2v0.7h2V27z"/>
			<path class="st7" d="M36.6,27h-0.7l-1.5-3.1h0.8l1.1,2.4l1.1-2.4h0.8L36.6,27z"/>
			<path class="st7" d="M41.2,27h-2.7c0-1,0-2.1,0-3.1h2.7v0.6h-2v0.7h2v0.5h-2v0.7h2V27z"/>
			<path class="st7" d="M42.5,23.9v2.6h1.9V27h-2.5v-3.1H42.5z"/>
			<path class="st7" d="M48.2,25.5c0,0.8-0.6,1.6-1.9,1.6c-1.3,0-1.9-0.8-1.9-1.6c0-0.8,0.6-1.6,1.9-1.6
				C47.6,23.8,48.2,24.7,48.2,25.5z M45.2,25.5c0,0.5,0.3,1.1,1.2,1.1s1.2-0.6,1.2-1.1s-0.3-1.1-1.2-1.1S45.2,25,45.2,25.5z"/>
			<path class="st7" d="M50.4,26.1h-1V27h-0.7v-3.1c0.6,0,1.1,0,1.7,0C52.2,23.9,52.2,26.1,50.4,26.1z M49.4,25.6h1
				c0.9,0,0.9-1.1,0-1.1h-1V25.6z"/>
			<path class="st7" d="M54.8,25.2l1-1.3h0.8l0,0l-1.4,1.8V27h-0.7v-1.3l-1.4-1.8l0,0h0.8L54.8,25.2z"/>
			<path class="st7" d="M60.4,25.5c0,0.8-0.6,1.6-1.9,1.6c-1.3,0-1.9-0.8-1.9-1.6c0-0.8,0.6-1.6,1.9-1.6
				C59.8,23.8,60.4,24.7,60.4,25.5z M57.4,25.5c0,0.5,0.3,1.1,1.2,1.1s1.2-0.6,1.2-1.1s-0.3-1.1-1.2-1.1S57.4,25,57.4,25.5z"/>
			<path class="st7" d="M64.1,23.9v1.8c0,0.9-0.7,1.4-1.6,1.4c-0.9,0-1.6-0.5-1.6-1.4v-1.8h0.7v1.8c0,0.6,0.4,0.9,0.9,0.9
				c0.6,0,0.9-0.3,0.9-0.9v-1.8H64.1z"/>
			<path class="st7" d="M68,27h-0.8l-1.1-1h-0.7v1h-0.7v-3.1c0.6,0,1.1,0,1.7,0c0.9,0,1.3,0.5,1.3,1c0,0.4-0.2,0.9-0.9,1L68,27
				L68,27z M65.4,24.4v1h1c0.4,0,0.6-0.2,0.6-0.5c0-0.2-0.2-0.5-0.6-0.5H65.4z"/>
			<path class="st7" d="M73.2,27h-0.6l-0.4-1l-0.4-1l-0.4,1L71,27h-0.6l-1.3-3.1h0.8l0.9,2.3l0.9-2.3H72l0.9,2.3l0.8-2.3h0.8
				L73.2,27z"/>
			<path class="st7" d="M77.6,27h-2.7c0-1,0-2.1,0-3.1h2.7v0.6h-2v0.7h2v0.5h-2v0.7h2V27z"/>
			<path class="st7" d="M81.1,24.8c0,0.2-0.1,0.5-0.5,0.6c0.4,0.1,0.6,0.5,0.6,0.7c0,0.7-0.6,0.9-1.4,0.9c-0.6,0-1.1,0-1.7,0v-3.1
				c0.6,0,1.1,0,1.7,0C80.5,23.9,81.1,24.2,81.1,24.8z M78.8,25.2h1c0.4,0,0.6-0.2,0.6-0.3c0-0.1-0.1-0.4-0.6-0.4h-1V25.2z
				 M78.8,26.5h1c0.3,0,0.7-0.1,0.7-0.4s-0.4-0.4-0.7-0.4h-1V26.5z"/>
			<path class="st7" d="M82.7,27v-3.1h0.7V27H82.7z"/>
			<path class="st7" d="M87.2,25.4c0,0.8-0.5,1.6-1.8,1.6c-0.4,0-1,0-1.4,0v-3.1c0.4,0,1,0,1.4,0C86.6,23.9,87.2,24.7,87.2,25.4z
				 M84.6,26.5h0.7c0.8,0,1.1-0.5,1.1-1s-0.3-1-1.1-1h-0.7V26.5z"/>
			<path class="st7" d="M90.3,27h-2.7c0-1,0-2.1,0-3.1h2.7v0.6h-2v0.7h2v0.5h-2v0.7h2V27z"/>
			<path class="st7" d="M93.3,23.9H94V27h-0.4l0,0l-1.9-2.1V27H91v-3.1h0.6l1.8,1.9L93.3,23.9L93.3,23.9z"/>
			<path class="st7" d="M95.6,24.4h-1.1v-0.5c1,0,1.9,0,3,0v0.5h-1.1V27h-0.7v-2.6H95.6z"/>
			<path class="st7" d="M97.8,27v-3.1h0.7V27H97.8z"/>
			<path class="st7" d="M100.3,24.4h-1.1v-0.5c1,0,1.9,0,3,0v0.5h-1.1V27h-0.7v-2.6H100.3z"/>
			<path class="st7" d="M104.2,25.2l1-1.3h0.8l0,0l-1.4,1.8V27h-0.7v-1.3l-1.4-1.8l0,0h0.8L104.2,25.2z"/>
		</g>
		<g class="st8">
			<path class="st3" d="M35.9,35.1V34l0.5-0.2v-5.1l-0.5-0.2v-1.1h0.5h1.8c0.5,0,0.9,0.2,1.2,0.5c0.4,0.3,0.6,0.8,0.8,1.3
				c0.2,0.6,0.3,1.2,0.3,2v0.1c0,0.7-0.1,1.4-0.3,2c-0.2,0.6-0.5,1-0.8,1.3c-0.4,0.3-0.8,0.5-1.2,0.5H35.9z M37.6,33.7h0.6
				c0.3,0,0.5-0.1,0.6-0.3s0.3-0.5,0.4-0.8c0.1-0.4,0.1-0.8,0.1-1.3v-0.1c0-0.5,0-0.9-0.1-1.2c-0.1-0.4-0.2-0.6-0.4-0.8
				s-0.4-0.3-0.6-0.3h-0.6V33.7z"/>
			<path class="st3" d="M43.4,35.2c-0.4,0-0.7-0.1-1-0.4c-0.3-0.2-0.5-0.6-0.6-1c-0.2-0.4-0.2-0.9-0.2-1.4v-0.2
				c0-0.6,0.1-1.1,0.2-1.5s0.3-0.8,0.6-1.1s0.6-0.4,1-0.4c0.3,0,0.6,0.1,0.9,0.3c0.2,0.2,0.4,0.5,0.5,0.9c0.1,0.4,0.2,0.9,0.2,1.4v1
				h-2.1l0,0c0,0.2,0.1,0.3,0.1,0.5c0.1,0.1,0.1,0.3,0.3,0.3s0.2,0.1,0.4,0.1c0.2,0,0.3,0,0.5-0.1s0.3-0.1,0.5-0.3l0.3,1.1
				c-0.2,0.2-0.4,0.3-0.6,0.5C44,35.1,43.7,35.2,43.4,35.2z M42.9,31.6h1v-0.1c0-0.2,0-0.4,0-0.5c0-0.1-0.1-0.2-0.1-0.3
				c-0.1-0.1-0.2-0.1-0.3-0.1c-0.1,0-0.2,0-0.3,0.1c-0.1,0.1-0.1,0.2-0.2,0.4S42.9,31.4,42.9,31.6L42.9,31.6z"/>
			<path class="st3" d="M47.1,35.1l-1-4.5l-0.4-0.1v-1.1h2v1.1l-0.3,0.1l0.4,2.2l0.1,0.4h0l0.1-0.4l0.5-2.2L48,30.4v-1.1h2v1.1
				l-0.4,0.1l-1.1,4.5H47.1z"/>
			<path class="st3" d="M52.6,35.2c-0.4,0-0.7-0.1-1-0.4c-0.3-0.2-0.5-0.6-0.6-1c-0.2-0.4-0.2-0.9-0.2-1.4v-0.2
				c0-0.6,0.1-1.1,0.2-1.5s0.3-0.8,0.6-1.1s0.6-0.4,1-0.4c0.3,0,0.6,0.1,0.9,0.3c0.2,0.2,0.4,0.5,0.5,0.9c0.1,0.4,0.2,0.9,0.2,1.4v1
				H52l0,0c0,0.2,0.1,0.3,0.1,0.5c0.1,0.1,0.1,0.3,0.3,0.3s0.2,0.1,0.4,0.1c0.2,0,0.3,0,0.5-0.1s0.3-0.1,0.5-0.3l0.3,1.1
				c-0.2,0.2-0.4,0.3-0.6,0.5C53.1,35.1,52.9,35.2,52.6,35.2z M52,31.6h1v-0.1c0-0.2,0-0.4,0-0.5c0-0.1-0.1-0.2-0.1-0.3
				c-0.1-0.1-0.2-0.1-0.3-0.1c-0.1,0-0.2,0-0.3,0.1c-0.1,0.1-0.1,0.2-0.2,0.4S52,31.4,52,31.6L52,31.6z"/>
			<path class="st3" d="M55,35.1V34l0.4-0.2v-5.7l-0.5-0.2v-1.1h1.7v7l0.4,0.2v1.1H55z"/>
			<path class="st3" d="M59.6,35.2c-0.4,0-0.7-0.1-1-0.4s-0.5-0.6-0.6-1c-0.1-0.4-0.2-0.9-0.2-1.5v-0.1c0-0.6,0.1-1.1,0.2-1.5
				c0.1-0.4,0.4-0.8,0.6-1c0.3-0.2,0.6-0.4,1-0.4c0.4,0,0.7,0.1,1,0.4s0.5,0.6,0.6,1c0.1,0.4,0.2,0.9,0.2,1.5v0.1
				c0,0.6-0.1,1.1-0.2,1.5c-0.1,0.4-0.4,0.8-0.6,1C60.3,35,60,35.2,59.6,35.2z M59.6,33.8c0.1,0,0.3-0.1,0.4-0.2
				c0.1-0.1,0.2-0.3,0.2-0.5s0.1-0.5,0.1-0.8v-0.1c0-0.3,0-0.6-0.1-0.8c0-0.2-0.1-0.4-0.2-0.5c-0.1-0.1-0.2-0.2-0.4-0.2
				c-0.1,0-0.3,0.1-0.4,0.2c-0.1,0.1-0.2,0.3-0.2,0.5c0,0.2-0.1,0.5-0.1,0.8v0.1c0,0.3,0,0.6,0.1,0.8c0,0.2,0.1,0.4,0.2,0.5
				C59.3,33.7,59.5,33.8,59.6,33.8z"/>
			<path class="st3" d="M62.4,37.3v-1.1l0.5-0.2v-5.4l-0.5-0.2v-1.1H64l0,0.6c0.1-0.2,0.2-0.4,0.4-0.6c0.1-0.1,0.3-0.2,0.5-0.2
				c0.3,0,0.6,0.1,0.8,0.4c0.2,0.2,0.4,0.6,0.5,1s0.2,1,0.2,1.6v0.1c0,0.6-0.1,1.1-0.2,1.5s-0.3,0.8-0.5,1s-0.5,0.4-0.8,0.4
				c-0.2,0-0.3-0.1-0.5-0.2c-0.1-0.1-0.3-0.3-0.4-0.5V36l0.4,0.2v1.1H62.4z M64.6,33.8c0.2,0,0.4-0.1,0.5-0.4
				c0.1-0.3,0.1-0.6,0.1-1.1v-0.1c0-0.3,0-0.6-0.1-0.8S65,31,64.9,30.8c-0.1-0.1-0.2-0.2-0.3-0.2c-0.1,0-0.2,0-0.3,0.1
				c-0.1,0.1-0.2,0.2-0.2,0.3v2.3c0,0.1,0.1,0.2,0.2,0.3C64.4,33.7,64.5,33.8,64.6,33.8z"/>
			<path class="st3" d="M67.2,35.1V34l0.4-0.2v-3.2l-0.5-0.2v-1.1h1.7v4.5l0.4,0.2v1.1H67.2z M67.6,28.3v-1.4h1.3v1.4H67.6z"/>
			<path class="st3" d="M70,35.1V34l0.4-0.2v-3.2l-0.5-0.2v-1.1h1.7l0,0.8c0.1-0.3,0.3-0.5,0.5-0.7c0.2-0.2,0.4-0.2,0.6-0.2
				c0.4,0,0.6,0.2,0.8,0.5s0.3,0.9,0.3,1.7v2.3l0.4,0.2v1.1h-2V34l0.4-0.2v-2.3c0-0.3,0-0.5-0.1-0.7c-0.1-0.1-0.2-0.2-0.3-0.2
				c-0.1,0-0.2,0-0.3,0.1c-0.1,0.1-0.2,0.2-0.2,0.3v2.8L72,34v1.1H70z"/>
			<path class="st3" d="M76.7,37.4c-0.2,0-0.4,0-0.7-0.1c-0.3-0.1-0.5-0.2-0.7-0.3l0.2-1.3c0.2,0.1,0.4,0.2,0.6,0.3
				c0.2,0.1,0.4,0.1,0.5,0.1c0.3,0,0.4-0.1,0.6-0.3c0.1-0.2,0.2-0.5,0.2-0.9v-0.3c-0.1,0.2-0.2,0.3-0.4,0.5
				c-0.1,0.1-0.3,0.2-0.5,0.2c-0.3,0-0.6-0.1-0.8-0.4s-0.4-0.6-0.5-1c-0.1-0.4-0.2-0.9-0.2-1.5v-0.1c0-0.6,0.1-1.1,0.2-1.6
				s0.3-0.8,0.5-1s0.5-0.4,0.8-0.4c0.2,0,0.4,0.1,0.6,0.2c0.2,0.1,0.3,0.3,0.4,0.6l0.1-0.7h1.1v5.5c0,0.5-0.1,1-0.2,1.3
				c-0.2,0.4-0.4,0.7-0.6,0.9C77.4,37.3,77.1,37.4,76.7,37.4z M76.8,33.8c0.1,0,0.2,0,0.3-0.1c0.1-0.1,0.2-0.1,0.2-0.2V31
				c-0.1-0.1-0.1-0.2-0.2-0.3c-0.1-0.1-0.2-0.1-0.3-0.1c-0.1,0-0.3,0.1-0.3,0.2c-0.1,0.1-0.1,0.3-0.2,0.5s-0.1,0.5-0.1,0.8v0.1
				c0,0.5,0,0.8,0.1,1.1C76.5,33.6,76.6,33.8,76.8,33.8z M78.4,30.6l-0.5-1.3H79v1.1L78.4,30.6z"/>
			<path class="st3" d="M82,35.1V34l0.5-0.2v-5.2L82,28.4v-1.1h0.5h1.2l2,4.9h0v-3.7l-0.7-0.2v-1.1h1.7h0.5v1.1l-0.5,0.2v6.4h-1.2
				l-2.1-4.8h0v3.6l0.7,0.2v1.1H82z"/>
			<path class="st3" d="M90,35.2c-0.4,0-0.7-0.1-1-0.4c-0.3-0.2-0.5-0.6-0.6-1c-0.2-0.4-0.2-0.9-0.2-1.4v-0.2c0-0.6,0.1-1.1,0.2-1.5
				c0.1-0.4,0.3-0.8,0.6-1.1c0.3-0.3,0.6-0.4,1-0.4c0.3,0,0.6,0.1,0.9,0.3c0.2,0.2,0.4,0.5,0.5,0.9c0.1,0.4,0.2,0.9,0.2,1.4v1h-2.1
				l0,0c0,0.2,0.1,0.3,0.1,0.5c0.1,0.1,0.1,0.3,0.3,0.3c0.1,0.1,0.2,0.1,0.4,0.1c0.2,0,0.3,0,0.5-0.1s0.3-0.1,0.5-0.3l0.3,1.1
				c-0.2,0.2-0.4,0.3-0.6,0.5C90.6,35.1,90.3,35.2,90,35.2z M89.5,31.6h1v-0.1c0-0.2,0-0.4,0-0.5c0-0.1-0.1-0.2-0.1-0.3
				c-0.1-0.1-0.2-0.1-0.3-0.1c-0.1,0-0.2,0-0.3,0.1c-0.1,0.1-0.1,0.2-0.2,0.4C89.5,31.2,89.5,31.4,89.5,31.6L89.5,31.6z"/>
			<path class="st3" d="M92.4,35.1V34l0.5-0.1l1-1.7l-1-1.7l-0.5-0.1v-1.1h2.1v1l-0.2,0.1l0.4,0.9l0.4-0.9l-0.3-0.1v-1h2v1.1
				l-0.4,0.1l-0.9,1.6l1,1.8l0.5,0.1v1.1h-2.1v-1l0.2-0.1l-0.4-0.8L94.3,34l0.3,0.1v1H92.4z"/>
			<path class="st3" d="M99.4,35.2c-0.4,0-0.7-0.2-0.9-0.5c-0.2-0.3-0.3-0.8-0.3-1.5v-2.6h-0.5v-1.3h0.5v-1.4h1.2v1.4h0.6v1.3h-0.6
				v2.6c0,0.2,0,0.3,0.1,0.4c0.1,0.1,0.1,0.1,0.2,0.1c0,0,0.1,0,0.1,0c0,0,0.1,0,0.1,0l0.1,1.4c-0.1,0-0.2,0.1-0.3,0.1
				C99.7,35.2,99.6,35.2,99.4,35.2z"/>
			<path class="st3" d="M101.2,32.5V31h2.1v1.4H101.2z"/>
			<path class="st3" d="M106.7,35.2c-0.5,0-1-0.2-1.3-0.5s-0.6-0.7-0.8-1.3c-0.2-0.6-0.3-1.2-0.3-1.9v-0.3c0-0.8,0.1-1.4,0.3-2
				s0.5-1,0.8-1.4s0.8-0.5,1.3-0.5c0.3,0,0.7,0.1,1,0.2c0.3,0.2,0.7,0.4,0.9,0.8v1.8h-0.9l-0.2-1c-0.1-0.1-0.2-0.2-0.3-0.3
				s-0.3-0.1-0.5-0.1c-0.3,0-0.5,0.1-0.7,0.3s-0.3,0.5-0.4,0.9s-0.1,0.8-0.1,1.3v0.4c0,0.5,0,0.9,0.1,1.2c0.1,0.3,0.2,0.6,0.4,0.8
				c0.2,0.2,0.4,0.3,0.7,0.3c0.1,0,0.3,0,0.4-0.1s0.3-0.1,0.3-0.2v-1l-0.6-0.1v-1.3h1.8v3.2c-0.3,0.3-0.6,0.5-0.9,0.6
				C107.5,35.1,107.1,35.2,106.7,35.2z"/>
			<path class="st3" d="M111.5,35.2c-0.4,0-0.7-0.1-1-0.4c-0.3-0.2-0.5-0.6-0.6-1c-0.2-0.4-0.2-0.9-0.2-1.4v-0.2
				c0-0.6,0.1-1.1,0.2-1.5c0.1-0.4,0.3-0.8,0.6-1.1c0.3-0.3,0.6-0.4,1-0.4c0.3,0,0.6,0.1,0.9,0.3c0.2,0.2,0.4,0.5,0.5,0.9
				c0.1,0.4,0.2,0.9,0.2,1.4v1H111l0,0c0,0.2,0.1,0.3,0.1,0.5c0.1,0.1,0.1,0.3,0.3,0.3c0.1,0.1,0.2,0.1,0.4,0.1c0.2,0,0.3,0,0.5-0.1
				s0.3-0.1,0.5-0.3l0.3,1.1c-0.2,0.2-0.4,0.3-0.6,0.5C112.1,35.1,111.8,35.2,111.5,35.2z M111,31.6h1v-0.1c0-0.2,0-0.4,0-0.5
				c0-0.1-0.1-0.2-0.1-0.3c-0.1-0.1-0.2-0.1-0.3-0.1c-0.1,0-0.2,0-0.3,0.1c-0.1,0.1-0.1,0.2-0.2,0.4C111,31.2,111,31.4,111,31.6
				L111,31.6z"/>
			<path class="st3" d="M113.9,35.1V34l0.4-0.2v-3.2l-0.5-0.2v-1.1h1.7l0,0.8c0.1-0.3,0.3-0.5,0.5-0.7c0.2-0.2,0.4-0.2,0.6-0.2
				c0.4,0,0.6,0.2,0.8,0.5s0.3,0.9,0.3,1.7v2.3l0.4,0.2v1.1h-2V34l0.4-0.2v-2.3c0-0.3,0-0.5-0.1-0.7c-0.1-0.1-0.2-0.2-0.3-0.2
				c-0.1,0-0.2,0-0.3,0.1c-0.1,0.1-0.2,0.2-0.2,0.3v2.8l0.3,0.2v1.1H113.9z"/>
			<path class="st3" d="M120.8,35.2c-0.4,0-0.7-0.1-1-0.4c-0.3-0.2-0.5-0.6-0.6-1c-0.2-0.4-0.2-0.9-0.2-1.4v-0.2
				c0-0.6,0.1-1.1,0.2-1.5c0.1-0.4,0.3-0.8,0.6-1.1c0.3-0.3,0.6-0.4,1-0.4c0.3,0,0.6,0.1,0.9,0.3c0.2,0.2,0.4,0.5,0.5,0.9
				c0.1,0.4,0.2,0.9,0.2,1.4v1h-2.1l0,0c0,0.2,0.1,0.3,0.1,0.5c0.1,0.1,0.1,0.3,0.3,0.3c0.1,0.1,0.2,0.1,0.4,0.1
				c0.2,0,0.3,0,0.5-0.1s0.3-0.1,0.5-0.3l0.3,1.1c-0.2,0.2-0.4,0.3-0.6,0.5C121.4,35.1,121.1,35.2,120.8,35.2z M120.2,31.6h1v-0.1
				c0-0.2,0-0.4,0-0.5c0-0.1-0.1-0.2-0.1-0.3c-0.1-0.1-0.2-0.1-0.3-0.1c-0.1,0-0.2,0-0.3,0.1c-0.1,0.1-0.1,0.2-0.2,0.4
				C120.3,31.2,120.2,31.4,120.2,31.6L120.2,31.6z"/>
			<path class="st3" d="M123.4,35.1V34l0.4-0.2v-3.2l-0.5-0.2v-1.1h1.7l0,0.7l0,0.1c0.1-0.3,0.2-0.6,0.3-0.7
				c0.1-0.2,0.3-0.2,0.5-0.2c0.1,0,0.1,0,0.2,0s0.1,0,0.2,0.1l-0.1,1.7l-0.5,0c-0.1,0-0.2,0-0.3,0.1s-0.1,0.1-0.2,0.2v2.5l0.4,0.2
				v1.1H123.4z"/>
			<path class="st3" d="M128.1,35.2c-0.4,0-0.7-0.2-0.9-0.5c-0.2-0.3-0.3-0.7-0.3-1.3c0-0.4,0.1-0.7,0.2-0.9
				c0.1-0.3,0.3-0.5,0.6-0.6c0.3-0.2,0.6-0.2,1-0.2h0.4v-0.3c0-0.2,0-0.4-0.1-0.6c-0.1-0.2-0.2-0.2-0.4-0.2c-0.1,0-0.2,0-0.2,0
				c-0.1,0-0.1,0.1-0.2,0.1l-0.1,0.7h-0.9l0-1.6c0.2-0.1,0.4-0.3,0.7-0.4c0.2-0.1,0.5-0.2,0.8-0.2c0.5,0,0.9,0.2,1.2,0.5
				c0.3,0.4,0.5,0.9,0.5,1.5v2.1c0,0.1,0,0.2,0,0.2c0,0.1,0,0.2,0,0.2l0.4,0.1v1.1h-1.4c0-0.1-0.1-0.1-0.1-0.3
				c0-0.1-0.1-0.2-0.1-0.3c-0.1,0.2-0.2,0.4-0.4,0.5C128.5,35.1,128.4,35.2,128.1,35.2z M128.5,33.9c0.1,0,0.2,0,0.3-0.1
				c0.1-0.1,0.2-0.1,0.2-0.2v-0.8h-0.4c-0.2,0-0.3,0.1-0.4,0.2s-0.1,0.3-0.1,0.4c0,0.2,0,0.3,0.1,0.4S128.4,33.9,128.5,33.9z"/>
			<path class="st3" d="M132.8,35.2c-0.4,0-0.7-0.2-0.9-0.5c-0.2-0.3-0.3-0.8-0.3-1.5v-2.6h-0.5v-1.3h0.5v-1.4h1.2v1.4h0.6v1.3h-0.6
				v2.6c0,0.2,0,0.3,0.1,0.4c0.1,0.1,0.1,0.1,0.2,0.1c0,0,0.1,0,0.1,0c0,0,0.1,0,0.1,0l0.1,1.4c-0.1,0-0.2,0.1-0.3,0.1
				C133,35.2,132.9,35.2,132.8,35.2z"/>
			<path class="st3" d="M134.4,35.1V34l0.4-0.2v-3.2l-0.5-0.2v-1.1h1.7v4.5l0.4,0.2v1.1H134.4z M134.8,28.3v-1.4h1.3v1.4H134.8z"/>
			<path class="st3" d="M139.2,35.2c-0.4,0-0.7-0.1-1-0.4s-0.5-0.6-0.6-1s-0.2-0.9-0.2-1.5v-0.1c0-0.6,0.1-1.1,0.2-1.5
				s0.4-0.8,0.6-1s0.6-0.4,1-0.4c0.4,0,0.7,0.1,1,0.4s0.5,0.6,0.6,1c0.1,0.4,0.2,0.9,0.2,1.5v0.1c0,0.6-0.1,1.1-0.2,1.5
				c-0.1,0.4-0.4,0.8-0.6,1C139.9,35,139.6,35.2,139.2,35.2z M139.2,33.8c0.1,0,0.3-0.1,0.4-0.2c0.1-0.1,0.2-0.3,0.2-0.5
				c0-0.2,0.1-0.5,0.1-0.8v-0.1c0-0.3,0-0.6-0.1-0.8c0-0.2-0.1-0.4-0.2-0.5c-0.1-0.1-0.2-0.2-0.4-0.2c-0.1,0-0.3,0.1-0.4,0.2
				c-0.1,0.1-0.2,0.3-0.2,0.5c0,0.2-0.1,0.5-0.1,0.8v0.1c0,0.3,0,0.6,0.1,0.8c0,0.2,0.1,0.4,0.2,0.5C138.9,33.7,139,33.8,139.2,33.8
				z"/>
			<path class="st3" d="M141.9,35.1V34l0.4-0.2v-3.2l-0.5-0.2v-1.1h1.7l0,0.8c0.1-0.3,0.3-0.5,0.5-0.7c0.2-0.2,0.4-0.2,0.6-0.2
				c0.4,0,0.6,0.2,0.8,0.5s0.3,0.9,0.3,1.7v2.3l0.4,0.2v1.1h-2V34l0.4-0.2v-2.3c0-0.3,0-0.5-0.1-0.7c-0.1-0.1-0.2-0.2-0.3-0.2
				c-0.1,0-0.2,0-0.3,0.1c-0.1,0.1-0.2,0.2-0.2,0.3v2.8l0.3,0.2v1.1H141.9z"/>
			<path class="st3" d="M151.4,35.2c-0.4,0-0.8-0.1-1.1-0.2c-0.3-0.1-0.6-0.3-1-0.7v-2h0.9l0.1,1c0.1,0.1,0.2,0.2,0.4,0.3
				c0.2,0.1,0.4,0.1,0.6,0.1c0.2,0,0.3,0,0.4-0.1c0.1-0.1,0.2-0.1,0.2-0.3c0.1-0.1,0.1-0.2,0.1-0.4c0-0.2,0-0.3-0.1-0.4
				c0-0.1-0.1-0.2-0.2-0.3s-0.3-0.2-0.5-0.3c-0.4-0.2-0.8-0.4-1.1-0.6c-0.3-0.2-0.5-0.5-0.6-0.8c-0.1-0.3-0.2-0.7-0.2-1.1
				c0-0.4,0.1-0.8,0.2-1.1c0.2-0.3,0.4-0.6,0.7-0.8c0.3-0.2,0.6-0.3,1-0.3c0.4,0,0.8,0,1.1,0.2c0.3,0.1,0.6,0.3,0.8,0.6v1.9h-0.9
				l-0.1-1c-0.1-0.1-0.2-0.1-0.3-0.2c-0.1,0-0.3-0.1-0.5-0.1c-0.1,0-0.3,0-0.4,0.1s-0.2,0.1-0.3,0.3s-0.1,0.3-0.1,0.4
				c0,0.1,0,0.3,0.1,0.4c0.1,0.1,0.1,0.2,0.3,0.3c0.1,0.1,0.3,0.2,0.6,0.4c0.6,0.3,1,0.6,1.3,1c0.3,0.4,0.4,0.9,0.4,1.6
				c0,0.5-0.1,0.8-0.2,1.2s-0.4,0.6-0.7,0.7C152.1,35.1,151.7,35.2,151.4,35.2z"/>
			<path class="st3" d="M156,35.2c-0.4,0-0.7-0.1-1-0.4c-0.3-0.2-0.5-0.6-0.6-1c-0.2-0.4-0.2-0.9-0.2-1.4v-0.2
				c0-0.6,0.1-1.1,0.2-1.5c0.1-0.4,0.3-0.8,0.6-1.1c0.3-0.3,0.6-0.4,1-0.4c0.3,0,0.6,0.1,0.9,0.3c0.2,0.2,0.4,0.5,0.5,0.9
				c0.1,0.4,0.2,0.9,0.2,1.4v1h-2.1l0,0c0,0.2,0.1,0.3,0.1,0.5c0.1,0.1,0.1,0.3,0.3,0.3c0.1,0.1,0.2,0.1,0.4,0.1
				c0.2,0,0.3,0,0.5-0.1s0.3-0.1,0.5-0.3l0.3,1.1c-0.2,0.2-0.4,0.3-0.6,0.5C156.6,35.1,156.3,35.2,156,35.2z M155.4,31.6h1v-0.1
				c0-0.2,0-0.4,0-0.5c0-0.1-0.1-0.2-0.1-0.3c-0.1-0.1-0.2-0.1-0.3-0.1c-0.1,0-0.2,0-0.3,0.1c-0.1,0.1-0.1,0.2-0.2,0.4
				C155.5,31.2,155.4,31.4,155.4,31.6L155.4,31.6z"/>
			<path class="st3" d="M158.6,35.1V34l0.4-0.2v-3.2l-0.5-0.2v-1.1h1.7l0,0.7l0,0.1c0.1-0.3,0.2-0.6,0.3-0.7
				c0.1-0.2,0.3-0.2,0.5-0.2c0.1,0,0.1,0,0.2,0s0.1,0,0.2,0.1l-0.1,1.7l-0.5,0c-0.1,0-0.2,0-0.3,0.1s-0.1,0.1-0.2,0.2v2.5l0.4,0.2
				v1.1H158.6z"/>
			<path class="st3" d="M163.5,35.1l-1-4.5l-0.4-0.1v-1.1h2v1.1l-0.3,0.1l0.4,2.2l0.1,0.4h0l0.1-0.4l0.5-2.2l-0.4-0.1v-1.1h2v1.1
				l-0.4,0.1l-1.1,4.5H163.5z"/>
			<path class="st3" d="M167.1,35.1V34l0.4-0.2v-3.2l-0.5-0.2v-1.1h1.7v4.5l0.4,0.2v1.1H167.1z M167.5,28.3v-1.4h1.3v1.4H167.5z"/>
			<path class="st3" d="M171.8,35.2c-0.4,0-0.7-0.1-1-0.4c-0.3-0.3-0.5-0.6-0.6-1s-0.2-0.9-0.2-1.5v-0.1c0-0.6,0.1-1.1,0.2-1.5
				s0.4-0.8,0.6-1s0.6-0.4,0.9-0.4c0.4,0,0.7,0.1,0.9,0.2c0.3,0.2,0.5,0.3,0.6,0.5l0,1.8h-0.9l-0.1-1c0-0.1-0.1-0.1-0.2-0.1
				s-0.1-0.1-0.2-0.1c-0.2,0-0.3,0.1-0.4,0.2c-0.1,0.1-0.2,0.3-0.2,0.5c0,0.2-0.1,0.5-0.1,0.9v0.1c0,0.4,0,0.7,0.1,0.9
				c0.1,0.2,0.1,0.4,0.2,0.5c0.1,0.1,0.2,0.1,0.3,0.1c0.1,0,0.3-0.1,0.3-0.2c0.1-0.1,0.1-0.3,0.2-0.5h1l0,0
				c-0.1,0.5-0.1,0.8-0.3,1.1s-0.3,0.5-0.5,0.7C172.4,35.1,172.2,35.2,171.8,35.2z"/>
			<path class="st3" d="M176.1,35.2c-0.4,0-0.7-0.1-1-0.4c-0.3-0.2-0.5-0.6-0.6-1c-0.2-0.4-0.2-0.9-0.2-1.4v-0.2
				c0-0.6,0.1-1.1,0.2-1.5c0.1-0.4,0.3-0.8,0.6-1.1c0.3-0.3,0.6-0.4,1-0.4c0.3,0,0.6,0.1,0.9,0.3c0.2,0.2,0.4,0.5,0.5,0.9
				c0.1,0.4,0.2,0.9,0.2,1.4v1h-2.1l0,0c0,0.2,0.1,0.3,0.1,0.5c0.1,0.1,0.1,0.3,0.3,0.3c0.1,0.1,0.2,0.1,0.4,0.1
				c0.2,0,0.3,0,0.5-0.1s0.3-0.1,0.5-0.3l0.3,1.1c-0.2,0.2-0.4,0.3-0.6,0.5C176.7,35.1,176.4,35.2,176.1,35.2z M175.6,31.6h1v-0.1
				c0-0.2,0-0.4,0-0.5c0-0.1-0.1-0.2-0.1-0.3c-0.1-0.1-0.2-0.1-0.3-0.1c-0.1,0-0.2,0-0.3,0.1c-0.1,0.1-0.1,0.2-0.2,0.4
				C175.6,31.2,175.6,31.4,175.6,31.6L175.6,31.6z"/>
			<path class="st3" d="M180.3,35.2c-0.3,0-0.6,0-0.8-0.1c-0.3-0.1-0.5-0.2-0.7-0.3l0-1.8h0.8l0.1,0.8c0,0,0.1,0.1,0.2,0.1
				c0.1,0,0.2,0.1,0.3,0.1c0.2,0,0.3,0,0.4-0.1s0.1-0.2,0.1-0.3c0-0.1,0-0.2-0.1-0.3s-0.3-0.2-0.5-0.3c-0.4-0.1-0.8-0.4-1-0.7
				c-0.2-0.3-0.3-0.7-0.3-1.2c0-0.3,0-0.6,0.1-0.9c0.1-0.3,0.3-0.5,0.5-0.7c0.2-0.2,0.5-0.3,0.9-0.3c0.3,0,0.6,0,0.8,0.1
				s0.5,0.2,0.6,0.3l0,1.7h-0.8l-0.1-0.7c-0.1-0.1-0.1-0.1-0.2-0.1s-0.1,0-0.2,0c-0.2,0-0.3,0-0.3,0.1c-0.1,0.1-0.1,0.2-0.1,0.3
				c0,0.1,0,0.2,0,0.2c0,0.1,0.1,0.2,0.2,0.2s0.2,0.1,0.4,0.2c0.4,0.1,0.8,0.3,1,0.6c0.2,0.3,0.3,0.6,0.3,1.2c0,0.6-0.1,1-0.4,1.3
				C181.2,35,180.8,35.2,180.3,35.2z"/>
		</g>
		<text transform="matrix(0.6564 0 0 1 35.7495 35.0625)" class="st9 st10 st11">Developing Next-Generation Services</text>
	</g>
</g>
<g id="Page-1">
	<path id="uick." class="st12" d="M53.8,27.4h-4.3v-2.3h-0.1c-0.6,1-1.3,1.7-2.2,2.1s-1.9,0.6-2.8,0.6c-1.2,0-2.2-0.2-3-0.5
		S40,26.5,39.5,26s-0.8-1.3-0.9-2.1C38.4,23,38.3,22,38.3,21V10.8h4.5v9.3c0,1.4,0.2,2.4,0.6,3.1c0.4,0.7,1.2,1,2.3,1
		c1.2,0,2.1-0.4,2.7-1.1c0.6-0.7,0.8-1.9,0.8-3.6v-8.7h4.5v16.6C53.7,27.4,53.8,27.4,53.8,27.4z M62,8.3h-4.5V4.5H62V8.3z
		 M57.4,10.8H62v16.5h-4.5L57.4,10.8L57.4,10.8z M76.8,16.7c-0.3-1.9-1.4-2.8-3.4-2.8c-0.7,0-1.3,0.2-1.8,0.5s-0.9,0.8-1.2,1.3
		c-0.3,0.5-0.5,1.1-0.7,1.7c-0.1,0.6-0.2,1.3-0.2,1.9s0.1,1.2,0.2,1.8c0.1,0.6,0.3,1.2,0.6,1.7s0.7,0.9,1.2,1.2s1.1,0.5,1.8,0.5
		c1.1,0,1.9-0.3,2.5-0.9s1-1.4,1.1-2.4h4.4c-0.3,2.2-1.2,3.9-2.6,5s-3.2,1.7-5.4,1.7c-1.2,0-2.4-0.2-3.4-0.6s-1.9-1-2.6-1.7
		S66,24,65.6,22.9S65,20.6,65,19.3c0-1.3,0.2-2.5,0.6-3.6s0.9-2,1.6-2.8s1.6-1.4,2.7-1.9c1-0.4,2.2-0.7,3.6-0.7c1,0,1.9,0.1,2.8,0.4
		c0.9,0.3,1.7,0.6,2.4,1.2c0.7,0.5,1.3,1.2,1.7,2c0.4,0.8,0.7,1.7,0.8,2.8C81.2,16.7,76.8,16.7,76.8,16.7z M84.3,4.5h4.5v12.3l5.7-6
		h5.4l-6.2,6.1l6.9,10.5h-5.5L90.6,20l-1.8,1.7v5.7h-4.5C84.3,27.4,84.3,4.5,84.3,4.5z M102.5,22.4h5v4.9h-5V22.4z"/>
	<path id="Q" class="st13" d="M16.8-0.6c0.1,0,0.3,0,0.4,0s0.3,0,0.4,0c9.4,0,16.9,7.7,16.9,17.1c0,0.2,0,0.4,0,0.7
		c-0.1,2.4-0.7,4.7-1.7,6.6H22.3c1.5-1.8,2.6-4.5,2.6-7.4v-0.1c0-0.3,0-0.5,0-0.8c0-5-3.4-9-7.5-9c-0.1,0-0.1,0-0.2,0s-0.1,0-0.2,0
		c-4.1,0-7.5,4-7.5,9c0,0.3,0,0.5,0,0.8v0.1c0,5.4,3.4,9.7,7.5,9.7c0.1,0,0.2,0,0.3,0h0.6h14.3l5.5,5.6l-4.8,4.6l-2.7-2.7H17.9
		c-0.4,0-0.8,0-1.2,0c-0.3,0-0.7,0-1.1-0.1C6.8,33.1,0,26-0.4,17.2c0-0.2,0-0.4,0-0.7C-0.4,7,7.2-0.6,16.5-0.6H16.8z"/>
</g>
</svg>
